<svg width="25" height="25" viewBox="0 0 25 25" fill="none" xmlns="http://www.w3.org/2000/svg">
<path d="M23.0308 4.02622C21.8025 2.78242 20.1088 2.09741 18.2617 2.09741C15.6767 2.09741 13.6846 3.3418 12.5 5.69658C11.3154 3.3418 9.32329 2.09741 6.73828 2.09741C4.89116 2.09741 3.19751 2.78242 1.96924 4.02627C0.680957 5.33091 0 7.1168 0 9.19087C0 11.6787 1.58086 14.4158 4.69863 17.326C7.52549 19.9646 10.6236 21.8164 11.216 22.1608C11.4628 22.3043 12.0122 22.6211 12.0122 22.6211L12.5001 22.9026L12.9881 22.621C12.9881 22.621 13.537 22.3042 13.7837 22.1608C14.3761 21.8163 17.4743 19.9644 20.3011 17.3259C23.419 14.4158 25 11.6787 25 9.19087C25 7.1168 24.319 5.33091 23.0308 4.02622ZM18.9685 15.8981C16.2947 18.3937 13.3625 20.1464 12.8019 20.4724C12.7229 20.5183 12.6128 20.582 12.4999 20.6474C12.3868 20.5821 12.2766 20.5183 12.1977 20.4724C11.6371 20.1464 8.70518 18.3939 6.03135 15.8981C3.36338 13.4078 1.95312 11.0885 1.95312 9.19087C1.95312 6.16431 3.92085 4.05054 6.73828 4.05054C8.57109 4.05054 9.87808 4.8623 10.7338 6.53228C11.4205 7.87217 11.5246 9.26133 11.5256 9.27519L11.5631 9.27266H13.4745C13.4754 9.25928 13.5796 7.89966 14.242 6.57983C15.0844 4.90151 16.4368 4.05054 18.2617 4.05054C21.0792 4.05054 23.0469 6.16431 23.0469 9.19087C23.0469 11.0885 21.6366 13.4078 18.9685 15.8981Z" fill="#7B5436"/>
</svg>
