<svg width="32" height="31" viewBox="0 0 32 31" fill="none" xmlns="http://www.w3.org/2000/svg">
<path d="M26.1739 20.2704C27.1464 19.5627 27.8507 18.5951 28.2115 17.4713L32 6.60587H7.64606L7.37738 3.7196C7.28494 2.70447 6.80675 1.7663 6.03094 1.07812C5.25506 0.389948 4.24844 0.0108643 3.19644 0.0108643H0V2.43104H3.19644C4.08325 2.43104 4.81081 3.07641 4.88894 3.93466L6.844 24.9352C6.84431 24.9389 6.84469 24.9426 6.84506 24.9464C7.03563 26.8004 8.47256 28.2487 10.3085 28.5505C10.7981 29.966 12.1789 30.9893 13.8028 30.9893C15.3964 30.9893 16.7566 30.004 17.2694 28.6296H20.2043C20.7171 30.004 22.0773 30.9893 23.6709 30.9893C25.7028 30.9893 27.3558 29.3878 27.3558 27.4195C27.3558 25.4511 25.7028 23.8497 23.6709 23.8497C22.0773 23.8497 20.7171 24.8349 20.2043 26.2094H17.2694C16.7566 24.8349 15.3964 23.8497 13.8028 23.8497C12.2626 23.8497 10.9408 24.7702 10.3909 26.0728C9.8185 25.8527 9.39806 25.3399 9.33156 24.7115L9.02038 21.369H22.7965C24.0184 21.369 25.1862 20.9891 26.1739 20.2704ZM23.671 26.2699C24.3254 26.2699 24.8577 26.7856 24.8577 27.4195C24.8577 28.0535 24.3254 28.5691 23.671 28.5691C23.0166 28.5691 22.4843 28.0535 22.4843 27.4195C22.4843 26.7856 23.0166 26.2699 23.671 26.2699ZM13.8029 26.2699C14.4572 26.2699 14.9896 26.7856 14.9896 27.4195C14.9896 28.0535 14.4572 28.5691 13.8029 28.5691C13.1485 28.5691 12.6162 28.0535 12.6162 27.4195C12.6162 26.7856 13.1485 26.2699 13.8029 26.2699ZM8.79513 18.9489V18.9488L7.87131 9.02605H28.5192L25.8395 16.7114L25.8291 16.7428C25.4166 18.0417 24.1696 18.9489 22.7966 18.9489H8.79513Z" fill="#3E3E3E"/>
</svg>
