<svg width="32" height="32" viewBox="0 0 32 32" fill="none" xmlns="http://www.w3.org/2000/svg">
<path d="M29.4794 5.15357C27.9072 3.5615 25.7393 2.68469 23.375 2.68469C20.0662 2.68469 17.5163 4.2775 16 7.29163C14.4838 4.2775 11.9338 2.68469 8.625 2.68469C6.26069 2.68469 4.09281 3.5615 2.52063 5.15363C0.871625 6.82357 0 9.10951 0 11.7643C0 14.9488 2.0235 18.4522 6.01425 22.1773C9.63262 25.5547 13.5982 27.925 14.3564 28.3659C14.6724 28.5496 15.3756 28.9551 15.3756 28.9551L16.0002 29.3153L16.6248 28.9549C16.6248 28.9549 17.3274 28.5494 17.6431 28.3658C18.4014 27.9249 22.3671 25.5544 25.9854 22.1772C29.9764 18.4522 32 14.9488 32 11.7643C32 9.10951 31.1284 6.82357 29.4794 5.15357ZM24.2796 20.3496C20.8572 23.544 17.1041 25.7874 16.3864 26.2046C16.2854 26.2634 16.1444 26.345 15.9998 26.4287C15.8551 26.3451 15.7141 26.2634 15.6131 26.2046C14.8955 25.7874 11.1426 23.5442 7.72013 20.3496C4.30513 17.162 2.5 14.1933 2.5 11.7643C2.5 7.89032 5.01869 5.18469 8.625 5.18469C10.971 5.18469 12.6439 6.22376 13.7393 8.36132C14.6182 10.0764 14.7515 11.8545 14.7528 11.8723L14.8007 11.869H17.2474C17.2485 11.8519 17.3819 10.1116 18.2298 8.42219C19.308 6.27394 21.0391 5.18469 23.375 5.18469C26.9813 5.18469 29.5 7.89032 29.5 11.7643C29.5 14.1933 27.6948 17.162 24.2796 20.3496Z" fill="#3E3E3E"/>
</svg>
