<svg width="17" height="17" viewBox="0 0 17 17" fill="none" xmlns="http://www.w3.org/2000/svg">
<path d="M15.6609 2.73783C14.8257 1.89205 13.674 1.42624 12.418 1.42624C10.6602 1.42624 9.30551 2.27242 8.5 3.87368C7.69449 2.27242 6.33984 1.42624 4.58203 1.42624C3.32599 1.42624 2.17431 1.89205 1.33908 2.73786C0.463051 3.62502 0 4.83942 0 6.24979C0 7.94152 1.07498 9.80272 3.19507 11.7817C5.11733 13.5759 7.22404 14.8352 7.62686 15.0694C7.7947 15.167 8.16827 15.3824 8.16827 15.3824L8.5001 15.5738L8.8319 15.3823C8.8319 15.3823 9.20517 15.1669 9.37291 15.0693C9.77573 14.8351 11.8825 13.5758 13.8048 11.7816C15.9249 9.80273 17 7.94152 17 6.24979C17 4.83942 16.5369 3.62502 15.6609 2.73783ZM12.8986 10.8107C11.0804 12.5078 9.08653 13.6995 8.7053 13.9212C8.65161 13.9524 8.57673 13.9958 8.4999 14.0402C8.42303 13.9958 8.3481 13.9524 8.29444 13.9212C7.91323 13.6995 5.91952 12.5078 4.10132 10.8107C2.2871 9.11731 1.32812 7.54016 1.32812 6.24979C1.32812 4.19173 2.66618 2.75436 4.58203 2.75436C5.82834 2.75436 6.71709 3.30637 7.29898 4.44195C7.76595 5.35307 7.83673 6.2977 7.8374 6.30713L7.8629 6.30541H9.16267C9.16327 6.29631 9.23412 5.37177 9.68459 4.47429C10.2574 3.33303 11.177 2.75436 12.418 2.75436C14.3338 2.75436 15.6719 4.19173 15.6719 6.24979C15.6719 7.54016 14.7129 9.11731 12.8986 10.8107Z" fill="#3E3E3E"/>
</svg>
