<svg width="17" height="17" viewBox="0 0 17 17" fill="none" xmlns="http://www.w3.org/2000/svg">
<path d="M15.0078 2.25781H1.99219C0.893695 2.25781 0 3.15151 0 4.25V12.75C0 13.8485 0.893695 14.7422 1.99219 14.7422H15.0078C16.1063 14.7422 17 13.8485 17 12.75V4.25C17 3.15151 16.1063 2.25781 15.0078 2.25781ZM1.32812 4.25C1.32812 3.88384 1.62602 3.58594 1.99219 3.58594H2.77933C2.69968 3.792 2.65625 4.01489 2.65625 4.25C2.65625 4.61616 2.35835 4.91406 1.99219 4.91406C1.75442 4.91406 1.53212 4.94843 1.32812 5.01457V4.25ZM1.99219 13.4141C1.62602 13.4141 1.32812 13.1162 1.32812 12.75V11.9854C1.53212 12.0516 1.75442 12.0859 1.99219 12.0859C2.35835 12.0859 2.65625 12.3838 2.65625 12.75C2.65625 12.9851 2.69968 13.208 2.77933 13.4141H1.99219ZM15.6719 12.75C15.6719 13.1162 15.374 13.4141 15.0078 13.4141H14.2207C14.3003 13.208 14.3438 12.9851 14.3438 12.75C14.3438 12.3838 14.6416 12.0859 15.0078 12.0859C15.2456 12.0859 15.4679 12.0516 15.6719 11.9854V12.75ZM15.6719 9.69531C15.6719 10.7578 15.2399 10.7578 15.0078 10.7578C13.9093 10.7578 13.0156 11.6515 13.0156 12.75C13.0156 13.1348 12.5967 13.4141 12.0195 13.4141H4.98047C4.4033 13.4141 3.98438 13.1348 3.98438 12.75C3.98438 11.6515 3.09068 10.7578 1.99219 10.7578C1.76013 10.7578 1.32812 10.7578 1.32812 9.69531V7.30469C1.32812 6.24219 1.76013 6.24219 1.99219 6.24219C3.09068 6.24219 3.98438 5.34849 3.98438 4.25C3.98438 3.86521 4.4033 3.58594 4.98047 3.58594H12.0195C12.5967 3.58594 13.0156 3.86521 13.0156 4.25C13.0156 5.34849 13.9093 6.24219 15.0078 6.24219C15.2399 6.24219 15.6719 6.24219 15.6719 7.30469V9.69531ZM15.6719 5.01457C15.4679 4.94843 15.2456 4.91406 15.0078 4.91406C14.6416 4.91406 14.3438 4.61616 14.3438 4.25C14.3438 4.01489 14.3003 3.792 14.2207 3.58594H15.0078C15.374 3.58594 15.6719 3.88384 15.6719 4.25V5.01457Z" fill="#7B5436"/>
<path d="M8.5 4.84363C6.65088 4.84363 5.14648 6.48207 5.14648 8.49597C5.14648 10.5099 6.65088 12.1483 8.5 12.1483C10.3491 12.1483 11.8535 10.5099 11.8535 8.49597C11.8535 6.48207 10.3491 4.84363 8.5 4.84363ZM8.5 10.8202C7.38318 10.8202 6.47461 9.77755 6.47461 8.49597C6.47461 7.2144 7.38318 6.17175 8.5 6.17175C9.61682 6.17175 10.5254 7.2144 10.5254 8.49597C10.5254 9.77755 9.61682 10.8202 8.5 10.8202Z" fill="#7B5436"/>
<path d="M13.7793 9.1601C14.146 9.1601 14.4434 8.86279 14.4434 8.49603C14.4434 8.12928 14.146 7.83197 13.7793 7.83197C13.4125 7.83197 13.1152 8.12928 13.1152 8.49603C13.1152 8.86279 13.4125 9.1601 13.7793 9.1601Z" fill="#7B5436"/>
<path d="M3.2207 9.1601C3.58745 9.1601 3.88477 8.86279 3.88477 8.49603C3.88477 8.12928 3.58745 7.83197 3.2207 7.83197C2.85395 7.83197 2.55664 8.12928 2.55664 8.49603C2.55664 8.86279 2.85395 9.1601 3.2207 9.1601Z" fill="#7B5436"/>
</svg>
