<svg width="14" height="14" viewBox="0 0 14 14" fill="none" xmlns="http://www.w3.org/2000/svg">
<path d="M11.6484 9.29688C11.2767 9.29688 10.925 9.38394 10.6122 9.53816L8.48739 7L10.6122 4.46182C10.925 4.61606 11.2767 4.70312 11.6484 4.70312C12.9451 4.70312 14 3.64823 14 2.35156C14 1.05489 12.9451 0 11.6484 0C10.3518 0 9.29688 1.05489 9.29688 2.35156C9.29688 2.88132 9.47311 3.37061 9.76981 3.7642L7.51879 6.45312H4.63824C4.391 5.41945 3.45991 4.64844 2.35156 4.64844C1.05492 4.64844 0 5.70333 0 7C0 8.29667 1.05492 9.35156 2.35156 9.35156C3.45991 9.35156 4.39102 8.58055 4.63824 7.54688H7.51879L9.76979 10.2358C9.47311 10.6294 9.29688 11.1187 9.29688 11.6484C9.29688 12.9451 10.3518 14 11.6484 14C12.9451 14 14 12.9451 14 11.6484C14 10.3518 12.9451 9.29688 11.6484 9.29688ZM11.6484 1.09375C12.342 1.09375 12.9062 1.65802 12.9062 2.35156C12.9062 3.04511 12.342 3.60938 11.6484 3.60938C10.9549 3.60938 10.3906 3.04511 10.3906 2.35156C10.3906 1.65802 10.9549 1.09375 11.6484 1.09375ZM2.35156 8.25781C1.65802 8.25781 1.09375 7.69355 1.09375 7C1.09375 6.30645 1.65802 5.74219 2.35156 5.74219C3.04511 5.74219 3.60938 6.30645 3.60938 7C3.60938 7.69355 3.04511 8.25781 2.35156 8.25781ZM11.6484 12.9062C10.9549 12.9062 10.3906 12.342 10.3906 11.6484C10.3906 10.9549 10.9549 10.3906 11.6484 10.3906C12.342 10.3906 12.9062 10.9549 12.9062 11.6484C12.9062 12.342 12.342 12.9062 11.6484 12.9062Z" fill="#3E3E3E"/>
</svg>
