<svg width="32" height="32" viewBox="0 0 32 32" fill="none" xmlns="http://www.w3.org/2000/svg">
<path d="M32 15.9999C31.9999 11.7262 30.3357 7.70825 27.3137 4.68625C24.2917 1.66425 20.2738 0 16 0C11.7262 0 7.70825 1.66431 4.68625 4.68625C1.66431 7.70831 0 11.7262 0 16V24.75C0 26.8177 1.68225 28.5 3.75 28.5H3.94263C4.07181 30.4515 5.69969 32 7.68337 32H10.875V15.1875H7.68337C5.8505 15.1875 4.32156 16.5096 3.99763 18.25H3.75C3.31181 18.25 2.89125 18.3263 2.5 18.465V16C2.5 8.55606 8.55606 2.5 16 2.5C23.4439 2.5 29.4999 8.55606 29.5 15.9999V18.465C29.1087 18.3263 28.6882 18.25 28.25 18.25H28.0024C27.6784 16.5096 26.1495 15.1875 24.3166 15.1875H21.125V32H24.3166C26.3003 32 27.9282 30.4515 28.0574 28.5H28.25C30.3177 28.5 32 26.8177 32 24.75V22C32 21.9159 31.9962 21.8328 31.9907 21.75H32V15.9999ZM6.43337 18.9375C6.43337 18.2482 6.99412 17.6875 7.68337 17.6875H8.375V29.5H7.68337C6.99412 29.5 6.43337 28.9393 6.43337 28.25V18.9375ZM3.75 20.75H3.93337V26H3.75C3.06075 26 2.5 25.4393 2.5 24.75V22C2.5 21.3107 3.06075 20.75 3.75 20.75ZM25.5666 28.25C25.5666 28.9393 25.0059 29.5 24.3166 29.5H23.625V17.6875H24.3166C25.0059 17.6875 25.5666 18.2482 25.5666 18.9375V28.25ZM29.5 24.75C29.5 25.4393 28.9393 26 28.25 26H28.0666V20.75H28.25C28.9393 20.75 29.5 21.3107 29.5 22V24.75Z" fill="#3E3E3E"/>
</svg>
