<svg width="15" height="15" viewBox="0 0 15 15" fill="none" xmlns="http://www.w3.org/2000/svg">
<path d="M8.08594 6.53115H6.91406V12.6542H8.08594V6.53115Z" fill="#414141"/>
<path d="M10.4297 6.53115H9.25781V12.6542H10.4297V6.53115Z" fill="#414141"/>
<path d="M5.74219 6.53115H4.57031V12.6542H5.74219V6.53115Z" fill="#414141"/>
<path d="M12.0703 2.13671H10.2832V1.75781C10.2832 0.788555 9.49465 0 8.52539 0H6.47461C5.50535 0 4.7168 0.788555 4.7168 1.75781V2.13671H2.92969C1.96043 2.13671 1.17188 2.92526 1.17188 3.89452V5.36133H2.34375V13.2422C2.34375 14.2114 3.1323 15 4.10156 15H10.8984C11.8677 15 12.6562 14.2114 12.6562 13.2422V5.36133H13.8281V3.89452C13.8281 2.92526 13.0396 2.13671 12.0703 2.13671ZM5.88867 1.75781C5.88867 1.43473 6.15152 1.17188 6.47461 1.17188H8.52539C8.84848 1.17188 9.11133 1.43473 9.11133 1.75781V2.13671H5.88867V1.75781ZM11.4844 13.2422C11.4844 13.5653 11.2215 13.8281 10.8984 13.8281H4.10156C3.77848 13.8281 3.51562 13.5653 3.51562 13.2422V5.36133H11.4844V13.2422ZM12.6562 4.18945H2.34375V3.89452C2.34375 3.57144 2.6066 3.30858 2.92969 3.30858H12.0703C12.3934 3.30858 12.6562 3.57144 12.6562 3.89452V4.18945Z" fill="#414141"/>
</svg>
